<svg xmlns="http://www.w3.org/2000/svg" viewBox="0 0 119.3 61.91"><defs><style>.cls-1{fill:#d4aa00;}.cls-2{fill:#a00;}</style></defs><title>logoAsset 7</title><g id="Layer_2" data-name="Layer 2"><g id="svg8"><path class="cls-1" d="M27.84,3.9c-.26.81-.68,2-1.28,3.59q-.7,1.66-1.79,4.8a102.59,102.59,0,0,0-4.29,18.24c-.13,1.11-.26,2.3-.38,3.58s-.2,2.37-.2,3.27a2.57,2.57,0,0,0,.48,1.47,2.63,2.63,0,0,1,.48.89A3,3,0,0,1,20,41.12a13.27,13.27,0,0,1-1.85,1.82,3,3,0,0,1-1.67.84c-.85,0-1.28-.37-1.28-1.09a92,92,0,0,1,1.6-9.63q1.61-8.24,2.69-12.64a22.3,22.3,0,0,1-2.75,2.68,4.72,4.72,0,0,1-3,1c-1.71,0-3.43-1.35-5.18-4.06a79,79,0,0,1-5.25-9.76L2.69,9A28.42,28.42,0,0,0,.9,5.76,6.87,6.87,0,0,1,0,4.22q0-.31.48-.48a3.52,3.52,0,0,1,1.06-.16q2.1,0,3.77,4a88.78,88.78,0,0,0,4.58,9.5q2.27,4,4.7,4A4.08,4.08,0,0,0,17.41,20a8.88,8.88,0,0,0,2-2.56,40.6,40.6,0,0,0,1.7-3.84c.66-1.66,1.16-3,1.5-4.09C24,5.44,24.7,3.07,24.83,2.43A11,11,0,0,1,25.41.54.86.86,0,0,1,26.24,0a2.18,2.18,0,0,1,1.34.48,1.37,1.37,0,0,1,.64,1.12A7.47,7.47,0,0,1,27.84,3.9Z"/><path class="cls-2" d="M46.13,24a4,4,0,0,1-2.23,1.32L39.54,27l-2.75,1q0,4.91.07,10.27t.19,9.42a79.84,79.84,0,0,0,.59,8.38c.28,1.94.44,3,.46,3.29a3.14,3.14,0,0,1-.52,1.75c-.36.53-.69.8-1,.8s-.31-.11-.42-.33a3.91,3.91,0,0,1-.3-1.09,47.56,47.56,0,0,1-.49-4.89c-.15-2.39-.27-5-.36-7.91-.08-2.58-.14-5.57-.19-9s-.06-6.73-.06-9.93a45.74,45.74,0,0,0-4.87,2.07,11.55,11.55,0,0,1-2.67,1,1.23,1.23,0,0,1-.95-.66,3.22,3.22,0,0,1-.44-1.79,2.3,2.3,0,0,1,.38-1.6,1.77,1.77,0,0,1,1.27-.38,5.28,5.28,0,0,0,1.86-.52c.82-.34,1.34-.58,1.57-.71,1.89-.81,3.17-1.34,3.85-1.6,0-1.32,0-3-.08-5.18q-.09-4.32-.09-6.59c0-2.45,0-4.35.11-5.7a27.59,27.59,0,0,1,.4-3.62c.22-1.26.65-1.89,1.27-1.89a.51.51,0,0,1,.51.29A3,3,0,0,1,37,3q0,.57-.21,3.3t-.21,7.25q0,3.48.09,7.82l0,2.54a80.31,80.31,0,0,0,7.53-3.48q.34-.19.57-1.32c.16-.76.32-1.13.49-1.13s.63.39,1,1.17a6.18,6.18,0,0,1,.49,2.41A4.11,4.11,0,0,1,46.13,24Z"/><path class="cls-1" d="M66,37.64a14.93,14.93,0,0,1-4.59,4.9,11.69,11.69,0,0,1-6.78,2q-3.75,0-5.54-2.07a7.57,7.57,0,0,1-1.79-5.15,28.41,28.41,0,0,1,1-6.67A27.22,27.22,0,0,1,51,23.58c.07-.15.38-.7.92-1.65a7.13,7.13,0,0,1,1.82-2.19A3.52,3.52,0,0,1,55.91,19a1.69,1.69,0,0,1,.92.25.73.73,0,0,1,.43.64,1.58,1.58,0,0,1-.31.54l-.48.64a26.4,26.4,0,0,0-3.08,4.54A30.37,30.37,0,0,0,51,31.25a20.5,20.5,0,0,0-.87,6.11q0,4.43,5.37,4.42a8.22,8.22,0,0,0,4.68-1.46,11.51,11.51,0,0,0,3.44-3.55,7.48,7.48,0,0,0,1.29-3.84,5,5,0,0,0-1.29-3.41,21.38,21.38,0,0,0-3.52-3.08,18.39,18.39,0,0,1-2.13-1.74,1.82,1.82,0,0,1-.67-1.12c0-.45.31-.81,1-1.09a5.49,5.49,0,0,1,2.24-.42,3.67,3.67,0,0,1,.95.08.31.31,0,0,1,.22.31.69.69,0,0,1-.19.36.78.78,0,0,0-.2.42c0,.12.37.49,1.12,1.12a25.55,25.55,0,0,1,3.75,3.76,7,7,0,0,1,1.52,4.48A10.6,10.6,0,0,1,66,37.64Z"/><path class="cls-1" d="M95,44.64a1.92,1.92,0,0,1-1.4.5c-.75,0-1.43-.78-2-2.35a17.72,17.72,0,0,1-1.14-4.87q-.22-2.41-.34-9.75c0-.78,0-1.58,0-2.38s0-1.48-.06-2a86,86,0,0,1-4.42,8.79A65.63,65.63,0,0,1,79.91,41q-2.84,3.53-4.62,3.52a2.39,2.39,0,0,1-2.44-2,23.61,23.61,0,0,1-.59-6.21,45.41,45.41,0,0,1,1-9,31.39,31.39,0,0,1,2.38-7.67,6.94,6.94,0,0,1,.95-1.6,1.2,1.2,0,0,1,.9-.42c.93,0,1.4.19,1.4.56a4,4,0,0,1-.56,1.29,33.87,33.87,0,0,0-2.64,6.72,40,40,0,0,0-1.12,10.53c0,2.95.42,4.42,1.24,4.42q1.45,0,3.94-3.22a57.5,57.5,0,0,0,5-7.7,67.82,67.82,0,0,0,3.75-7.78,26.16,26.16,0,0,0,1-3.47,6.67,6.67,0,0,1,.34-1.37q.16-.42.39-.42a2.35,2.35,0,0,1,1.34.5,1.37,1.37,0,0,1,.73,1.06q0,2.7.2,9.22T93,37a10.72,10.72,0,0,0,.81,3.42,10.88,10.88,0,0,0,1.15,1.93,2.33,2.33,0,0,1,.56.87A1.93,1.93,0,0,1,95,44.64Z"/><path class="cls-1" d="M118.6,21.76a1.94,1.94,0,0,1-1.2.64,1.13,1.13,0,0,1-.76-.33,7.24,7.24,0,0,1-.81-.95,3.44,3.44,0,0,0-1-1,2.49,2.49,0,0,0-1.31-.39q-1.62,0-4.37,4.29a66.16,66.16,0,0,0-5.38,10.78c0,.86.11,1.94.2,3.24s.16,2.28.2,2.92l.16,2.24a2.75,2.75,0,0,1-.33,1.37,1.31,1.31,0,0,1-1.23.59c-.64,0-1-.85-1.24-2.55s-.3-4.17-.33-7.42c0-.82-.07-2-.09-3.53s-.06-3.36-.14-5.49c-.11-3.21-.16-5.5-.16-6.89,0-.85.52-1.28,1.56-1.28a1,1,0,0,1,1.15.81,15.86,15.86,0,0,1,.2,3.11v8.9a44.62,44.62,0,0,1,3.64-7.45,21.78,21.78,0,0,1,3.83-4.79A5.42,5.42,0,0,1,114.49,17a5.39,5.39,0,0,1,4.14,2,2.73,2.73,0,0,1,.67,1.65A1.72,1.72,0,0,1,118.6,21.76Z"/></g></g></svg>